<mxfile host="app.diagrams.net" modified="2023-08-04T18:44:49.147Z" agent="Mozilla/5.0 (X11; Linux x86_64) AppleWebKit/537.36 (KHTML, like Gecko) Chrome/115.0.0.0 Safari/537.36" etag="PpPRGnQSAIr5in5-WFPQ" version="21.6.6" type="github">
  <diagram name="Page-1" id="wp87S7S3MQAqfiekW7wM">
    <mxGraphModel dx="2736" dy="782" grid="1" gridSize="10" guides="1" tooltips="1" connect="1" arrows="1" fold="1" page="1" pageScale="1" pageWidth="850" pageHeight="1100" math="0" shadow="0">
      <root>
        <mxCell id="0" />
        <mxCell id="1" parent="0" />
        <mxCell id="xv1UPW5JGDZvfmIJ-5OE-15" style="edgeStyle=orthogonalEdgeStyle;rounded=0;orthogonalLoop=1;jettySize=auto;html=1;entryX=0;entryY=0.5;entryDx=0;entryDy=0;" parent="1" source="xv1UPW5JGDZvfmIJ-5OE-1" target="xv1UPW5JGDZvfmIJ-5OE-14" edge="1">
          <mxGeometry relative="1" as="geometry" />
        </mxCell>
        <mxCell id="xv1UPW5JGDZvfmIJ-5OE-1" value=".template" style="shape=note;whiteSpace=wrap;html=1;backgroundOutline=1;darkOpacity=0.05;" parent="1" vertex="1">
          <mxGeometry x="-150" y="240" width="80" height="100" as="geometry" />
        </mxCell>
        <mxCell id="xv1UPW5JGDZvfmIJ-5OE-2" value="settings.py" style="shape=step;perimeter=stepPerimeter;whiteSpace=wrap;html=1;fixedSize=1;" parent="1" vertex="1">
          <mxGeometry x="210" y="250" width="120" height="80" as="geometry" />
        </mxCell>
        <mxCell id="xv1UPW5JGDZvfmIJ-5OE-5" style="edgeStyle=orthogonalEdgeStyle;rounded=0;orthogonalLoop=1;jettySize=auto;html=1;entryX=0;entryY=0.5;entryDx=0;entryDy=0;entryPerimeter=0;" parent="1" source="xv1UPW5JGDZvfmIJ-5OE-4" target="xv1UPW5JGDZvfmIJ-5OE-1" edge="1">
          <mxGeometry relative="1" as="geometry">
            <mxPoint x="-180" y="290" as="targetPoint" />
          </mxGeometry>
        </mxCell>
        <mxCell id="xv1UPW5JGDZvfmIJ-5OE-4" value="Execução" style="shape=step;perimeter=stepPerimeter;whiteSpace=wrap;html=1;fixedSize=1;" parent="1" vertex="1">
          <mxGeometry x="-370" y="250" width="120" height="80" as="geometry" />
        </mxCell>
        <mxCell id="xv1UPW5JGDZvfmIJ-5OE-7" value="Lê arquivo" style="text;html=1;align=center;verticalAlign=middle;resizable=0;points=[];autosize=1;strokeColor=none;fillColor=none;" parent="1" vertex="1">
          <mxGeometry x="-240" y="260" width="80" height="30" as="geometry" />
        </mxCell>
        <mxCell id="xv1UPW5JGDZvfmIJ-5OE-8" value="Carrega arquivo" style="text;html=1;align=center;verticalAlign=middle;resizable=0;points=[];autosize=1;strokeColor=none;fillColor=none;" parent="1" vertex="1">
          <mxGeometry x="90" y="260" width="110" height="30" as="geometry" />
        </mxCell>
        <mxCell id="xv1UPW5JGDZvfmIJ-5OE-11" value="Modelo.html" style="shape=note;whiteSpace=wrap;html=1;backgroundOutline=1;darkOpacity=0.05;" parent="1" vertex="1">
          <mxGeometry x="550" y="240" width="80" height="100" as="geometry" />
        </mxCell>
        <mxCell id="xv1UPW5JGDZvfmIJ-5OE-13" value="Substitui" style="text;html=1;align=center;verticalAlign=middle;resizable=0;points=[];autosize=1;strokeColor=none;fillColor=none;" parent="1" vertex="1">
          <mxGeometry x="460" y="270" width="70" height="30" as="geometry" />
        </mxCell>
        <mxCell id="xv1UPW5JGDZvfmIJ-5OE-16" style="edgeStyle=orthogonalEdgeStyle;rounded=0;orthogonalLoop=1;jettySize=auto;html=1;" parent="1" source="xv1UPW5JGDZvfmIJ-5OE-14" target="xv1UPW5JGDZvfmIJ-5OE-2" edge="1">
          <mxGeometry relative="1" as="geometry" />
        </mxCell>
        <mxCell id="xv1UPW5JGDZvfmIJ-5OE-23" style="edgeStyle=orthogonalEdgeStyle;rounded=0;orthogonalLoop=1;jettySize=auto;html=1;entryX=0;entryY=0.5;entryDx=0;entryDy=0;exitX=0.5;exitY=1;exitDx=0;exitDy=0;" parent="1" source="xv1UPW5JGDZvfmIJ-5OE-14" edge="1">
          <mxGeometry relative="1" as="geometry">
            <Array as="points">
              <mxPoint x="40" y="425" />
            </Array>
            <mxPoint x="50" y="330" as="sourcePoint" />
            <mxPoint x="220" y="425" as="targetPoint" />
          </mxGeometry>
        </mxCell>
        <mxCell id="xv1UPW5JGDZvfmIJ-5OE-14" value="" style="rhombus;whiteSpace=wrap;html=1;" parent="1" vertex="1">
          <mxGeometry y="250" width="80" height="80" as="geometry" />
        </mxCell>
        <mxCell id="xv1UPW5JGDZvfmIJ-5OE-20" value="finaliza a execução" style="text;html=1;align=center;verticalAlign=middle;resizable=0;points=[];autosize=1;strokeColor=none;fillColor=none;" parent="1" vertex="1">
          <mxGeometry x="50" y="390" width="130" height="30" as="geometry" />
        </mxCell>
        <mxCell id="xv1UPW5JGDZvfmIJ-5OE-22" value="" style="ellipse;whiteSpace=wrap;html=1;aspect=fixed;" parent="1" vertex="1">
          <mxGeometry x="210" y="400" width="50" height="50" as="geometry" />
        </mxCell>
        <mxCell id="9fdkJXs1SYlgDTzDYyly-2" style="edgeStyle=orthogonalEdgeStyle;rounded=0;orthogonalLoop=1;jettySize=auto;html=1;" parent="1" source="9fdkJXs1SYlgDTzDYyly-1" target="xv1UPW5JGDZvfmIJ-5OE-11" edge="1">
          <mxGeometry relative="1" as="geometry" />
        </mxCell>
        <mxCell id="9fdkJXs1SYlgDTzDYyly-1" value="Formata" style="shape=step;perimeter=stepPerimeter;whiteSpace=wrap;html=1;fixedSize=1;" parent="1" vertex="1">
          <mxGeometry x="320" y="250" width="120" height="80" as="geometry" />
        </mxCell>
      </root>
    </mxGraphModel>
  </diagram>
</mxfile>
